<?xml version="1.0" encoding="UTF-8"?>
<svg version="1.1" xmlns="http://www.w3.org/2000/svg" width="1024" height="1024">
<path d="M0 0 C6.59814187 3.64035414 10.36898431 7.93080257 12.90625 14.9921875 C14.42373799 20.62857145 14.30004937 26.21787064 14.140625 32.01953125 C14.04337786 34.8028714 14.04337786 34.8028714 14.6953125 36.875 C15.66635014 41.11225517 14.71306318 45.627424 14.32421875 49.91796875 C14.1409562 52.7443118 14.2981827 55.00130975 14.64990234 57.87475586 C15.35684527 63.89939101 15.31127254 69.90182485 15.30078125 75.9609375 C15.30221634 77.79563095 15.30221634 77.79563095 15.30368042 79.66738892 C15.3043578 82.23740694 15.30253447 84.80742672 15.29833984 87.37744141 C15.29295759 91.32067664 15.29831401 95.2637994 15.3046875 99.20703125 C15.30402718 101.70833359 15.30274698 104.20963585 15.30078125 106.7109375 C15.30280548 107.89215179 15.30482971 109.07336609 15.30691528 110.29037476 C15.30376312 111.38226105 15.30061096 112.47414734 15.29736328 113.59912109 C15.29616989 115.04066055 15.29616989 115.04066055 15.29495239 116.51132202 C15.16796875 118.9375 15.16796875 118.9375 14.16796875 121.9375 C14.31516011 125.69823931 14.56154996 129.43584838 14.8515625 133.1875 C15.15804612 137.83708082 15.10963136 142.28926629 14.68582153 146.93257141 C14.13407306 153.74580599 14.02673899 160.50394273 14.03857422 167.33666992 C14.0368219 168.60687988 14.03506958 169.87708984 14.03326416 171.18579102 C14.02875561 174.63034476 14.03045257 178.07486811 14.03364325 181.51942229 C14.03620398 185.15579663 14.03381884 188.79216864 14.03225708 192.42854309 C14.03044495 198.536758 14.03281527 204.64496077 14.03759766 210.75317383 C14.04302619 217.76665258 14.04128399 224.7801022 14.03577125 231.79358023 C14.03119806 237.85946879 14.03061031 243.92534869 14.03320992 249.99123842 C14.03475134 253.59438033 14.03502654 257.19750866 14.03167343 260.80064964 C14.0073003 281.05315574 14.0073003 281.05315574 15.00271606 301.27510071 C15.18327975 305.27682872 14.97791719 309.07057957 14.66796875 313.0625 C14.14140506 320.01094674 14.29812754 326.7918118 14.66796875 333.75 C15.11512652 342.1894375 15.06493122 350.41111142 14.50390625 358.83984375 C14.09742959 365.46113459 14.3996494 371.85641978 15.01171875 378.45703125 C15.24934182 382.24725474 14.9932334 385.92993513 14.70703125 389.71484375 C14.0812467 398.19506721 14.01620643 406.63910591 14.03759766 415.13964844 C14.04304985 417.72596866 14.03756757 420.31212189 14.03125 422.8984375 C14.03190936 424.55208371 14.03318758 426.20572983 14.03515625 427.859375 C14.0321199 429.01237091 14.0321199 429.01237091 14.02902222 430.18865967 C14.04310912 433.37121938 14.15404622 435.89573241 15.16796875 438.9375 C15.25879042 440.31115325 15.29585968 441.68877811 15.29736328 443.06542969 C15.30203865 444.31982597 15.30203865 444.31982597 15.30680847 445.5995636 C15.30481949 446.51030136 15.30283051 447.42103912 15.30078125 448.359375 C15.30205521 449.31567307 15.30332916 450.27197113 15.30464172 451.25724792 C15.3064589 454.40069534 15.30005999 457.54406095 15.29296875 460.6875 C15.29213791 462.29118942 15.29213791 462.29118942 15.29129028 463.92727661 C15.2812065 480.53154572 15.02282125 497.1178922 14.43603516 513.71191406 C14.19490219 520.89654992 14.19772617 527.79437552 15.16796875 534.9375 C14.83463542 537.27083333 14.50130208 539.60416667 14.16796875 541.9375 C14.33296875 543.195625 14.49796875 544.45375 14.66796875 545.75 C15.22415218 550.01641976 15.03869279 554.10099301 14.73046875 558.375 C14.0795926 567.81061137 14.0498223 577.23420537 14.04296875 586.6875 C14.04056183 587.44400848 14.03815491 588.20051697 14.03567505 588.97994995 C14.02971317 591.16896941 14.03116148 593.35785332 14.03515625 595.546875 C14.03628418 596.82530273 14.03741211 598.10373047 14.03857422 599.42089844 C14.1589129 602.69138601 14.61910805 605.71823684 15.16796875 608.9375 C15.18240726 610.54601464 15.14229014 612.15597165 15.046875 613.76171875 C14.99861572 614.69089111 14.95035645 615.62006348 14.90063477 616.57739258 C14.81640259 618.08595825 14.81640259 618.08595825 14.73046875 619.625 C14.34412045 627.40312627 14.12583947 635.15866492 14.16796875 642.9453125 C14.17175034 643.71516983 14.17553192 644.48502716 14.1794281 645.2782135 C14.20174247 649.08710499 14.23928897 652.89528925 14.29321289 656.70385742 C14.46186835 672.97750323 12.93906715 686.6611449 1.36938477 698.81054688 C-9.10554936 709.42282869 -20.13658221 712.30705602 -34.83203125 713.9375 C-34.83203125 714.2675 -34.83203125 714.5975 -34.83203125 714.9375 C-37.14203125 714.9375 -39.45203125 714.9375 -41.83203125 714.9375 C-42.16203125 714.2775 -42.49203125 713.6175 -42.83203125 712.9375 C-43.16203125 713.9275 -43.49203125 714.9175 -43.83203125 715.9375 C-44.16203125 715.6075 -44.49203125 715.2775 -44.83203125 714.9375 C-47.69470692 714.86424832 -50.53275025 714.84511795 -53.39453125 714.875 C-54.20083984 714.87951172 -55.00714844 714.88402344 -55.83789062 714.88867188 C-57.83596881 714.90049482 -59.83400908 714.91843086 -61.83203125 714.9375 C-61.83203125 714.2775 -61.83203125 713.6175 -61.83203125 712.9375 C-71.07203125 713.2675 -80.31203125 713.5975 -89.83203125 713.9375 C-89.83203125 714.2675 -89.83203125 714.5975 -89.83203125 714.9375 C-92.14203125 714.9375 -94.45203125 714.9375 -96.83203125 714.9375 C-96.83203125 714.6075 -96.83203125 714.2775 -96.83203125 713.9375 C-101.60090762 713.91274936 -106.36974646 713.89461597 -111.13867188 713.88256836 C-112.76042329 713.87754495 -114.3821702 713.87072506 -116.00390625 713.86206055 C-118.33725094 713.84990771 -120.67053565 713.84425172 -123.00390625 713.83984375 C-123.7269696 713.83468246 -124.45003296 713.82952118 -125.19500732 713.82420349 C-128.55215875 713.82383082 -131.62309233 713.88842381 -134.83203125 714.9375 C-134.83203125 714.2775 -134.83203125 713.6175 -134.83203125 712.9375 C-135.39148438 712.93492187 -135.9509375 712.93234375 -136.52734375 712.9296875 C-150.12968953 712.27362581 -160.74501787 705.73904776 -169.83203125 695.9375 C-172.78201995 692.4750411 -174.7988186 689.39043315 -175.83203125 684.9375 C-176.07650088 684.28974609 -176.32097052 683.64199219 -176.57284832 682.97460938 C-179.60949647 674.63248772 -179.24681124 666.17826756 -179.2043457 657.4375 C-179.20677721 655.67887151 -179.2105 653.92024441 -179.21540833 652.16162109 C-179.22477185 647.40955265 -179.21543019 642.65769181 -179.2020762 637.90563965 C-179.1907125 632.91886385 -179.194873 627.93209754 -179.19682312 622.9453125 C-179.19770454 614.57288241 -179.18665746 606.20053352 -179.16821289 597.828125 C-179.14704764 588.16576854 -179.14353634 578.50353096 -179.14977485 568.84115601 C-179.15548118 559.52397094 -179.14980789 550.2068275 -179.1386013 540.88964844 C-179.13397212 536.93456244 -179.13307416 532.97950203 -179.13518715 529.02441406 C-179.13707899 524.36219454 -179.12889762 519.700095 -179.11312675 515.03790283 C-179.10890574 513.33278907 -179.10801854 511.62766308 -179.11081696 509.92254639 C-179.14361167 486.35476916 -179.14361167 486.35476916 -173.62890625 480.6640625 C-171.76432292 478.84635417 -169.89973958 477.02864583 -168.03515625 475.2109375 C-162.32854713 469.62909447 -156.99539684 463.94914468 -152.0234375 457.6875 C-149.78890002 454.88337454 -147.47319814 452.16374417 -145.14453125 449.4375 C-133.96110311 436.02084859 -124.04630084 421.58664258 -114.29882812 407.10986328 C-112.96031596 405.1274929 -111.60960896 403.15422713 -110.25390625 401.18359375 C-103.4647904 391.24883161 -97.41187372 380.90479723 -91.34667969 370.51708984 C-89.59654833 367.53645027 -87.81628642 364.5752144 -86.02587891 361.61865234 C-79.96298046 351.60453393 -74.52280486 341.42817831 -69.45703125 330.875 C-68.7765271 329.46226807 -68.7765271 329.46226807 -68.08227539 328.02099609 C-67.66196045 327.13621582 -67.24164551 326.25143555 -66.80859375 325.33984375 C-66.42783691 324.54054443 -66.04708008 323.74124512 -65.65478516 322.91772461 C-64.70413608 320.98706948 -64.70413608 320.98706948 -64.83203125 318.9375 C-64.17203125 318.9375 -63.51203125 318.9375 -62.83203125 318.9375 C-54.93757372 298.87511771 -54.93757372 298.87511771 -52.83203125 277.9375 C-54.01734488 275.61869025 -54.01734488 275.61869025 -55.83203125 273.9375 C-59.24659459 273.18704494 -59.24659459 273.18704494 -62.83203125 273.9375 C-70.42435216 279.58759928 -73.33136078 290.40669935 -76.83203125 298.875 C-86.79950492 322.65084145 -97.72058533 346.80219831 -111.95141602 368.37670898 C-112.99582883 369.92913265 -112.99582883 369.92913265 -112.83203125 371.9375 C-113.40824219 372.49953125 -113.98445313 373.0615625 -114.578125 373.640625 C-117.257689 376.37127254 -119.0159003 379.39165624 -120.89453125 382.6875 C-131.58964109 400.92514821 -144.28492829 418.33949958 -157.83984375 434.55078125 C-159.79850307 436.89733193 -161.6928325 439.28484682 -163.58203125 441.6875 C-171.90387488 452.11887285 -180.84682048 462.07720783 -189.83203125 471.9375 C-190.736983 472.93619444 -191.64193071 473.93489255 -192.546875 474.93359375 C-199.64025983 482.74132359 -206.825283 490.27545072 -214.83203125 497.15625 C-216.91540203 499.0117521 -218.87484332 500.94973101 -220.83203125 502.9375 C-224.03433946 506.18358977 -227.34812632 509.2272436 -230.80859375 512.1953125 C-232.23474938 513.423238 -233.64486646 514.66991335 -235.04296875 515.9296875 C-236.11417969 516.89261719 -236.11417969 516.89261719 -237.20703125 517.875 C-237.85414063 518.46152344 -238.50125 519.04804687 -239.16796875 519.65234375 C-240.83203125 520.9375 -240.83203125 520.9375 -242.83203125 520.9375 C-243.16203125 521.9275 -243.49203125 522.9175 -243.83203125 523.9375 C-245.40942383 525.34082031 -245.40942383 525.34082031 -247.4140625 526.765625 C-248.13803223 527.28833984 -248.86200195 527.81105469 -249.60791016 528.34960938 C-250.34187012 528.87361328 -251.07583008 529.39761719 -251.83203125 529.9375 C-253.10939139 530.8871101 -254.38422655 531.84012811 -255.65625 532.796875 C-256.28644043 533.26834961 -256.91663086 533.73982422 -257.56591797 534.22558594 C-258.21061035 534.70801758 -258.85530273 535.19044922 -259.51953125 535.6875 C-260.20289551 536.19829102 -260.88625977 536.70908203 -261.59033203 537.23535156 C-264.97897732 539.77428088 -268.35129886 542.32993416 -271.6875 544.9375 C-272.28280518 545.40188477 -272.87811035 545.86626953 -273.49145508 546.34472656 C-274.61311577 547.22264513 -275.73159331 548.10464988 -276.84643555 548.99121094 C-280.61215364 551.9375 -280.61215364 551.9375 -282.83203125 551.9375 C-282.83203125 552.5975 -282.83203125 553.2575 -282.83203125 553.9375 C-284.7109375 555.3125 -284.7109375 555.3125 -287.39453125 556.9375 C-291.33512485 559.37021339 -295.22270627 561.8492319 -299.05712891 564.4440918 C-305.28588398 568.6592193 -311.60027492 572.70586077 -318.01953125 576.625 C-318.71892822 577.05200195 -319.4183252 577.47900391 -320.13891602 577.91894531 C-322.36411004 579.26842114 -324.59749194 580.60355955 -326.83203125 581.9375 C-327.73042725 582.48188721 -328.62882324 583.02627441 -329.55444336 583.5871582 C-337.16530178 588.13194419 -344.97694976 592.03036031 -353.01953125 595.75 C-354.23776952 596.32718 -355.45586893 596.9046532 -356.67382812 597.48242188 C-363.03863107 600.44061265 -368.9021187 602.76886813 -375.83203125 603.9375 C-375.17203125 603.6075 -374.51203125 603.2775 -373.83203125 602.9375 C-373.57808594 602.37546875 -373.32414063 601.8134375 -373.0625 601.234375 C-371.32801585 597.99667124 -368.76503507 595.70609312 -366.14453125 593.1875 C-362.10182995 589.22576068 -358.20359262 585.23052606 -354.53125 580.91796875 C-352.55172693 578.61080048 -350.50561005 576.37103218 -348.45703125 574.125 C-344.59339541 569.84437817 -340.93049674 565.4350032 -337.30859375 560.94921875 C-335.45446396 558.69443316 -333.58017428 556.4741177 -331.66796875 554.26953125 C-330.85453003 553.33125488 -330.85453003 553.33125488 -330.0246582 552.37402344 C-328.959014 551.14893958 -327.88997397 549.92679919 -326.81713867 548.70800781 C-323.99880246 545.48701924 -323.99880246 545.48701924 -321.796875 541.83984375 C-320.36025678 539.00732119 -318.08810385 537.15776192 -315.83203125 534.9375 C-313.99291716 532.78167631 -312.25427409 530.5527575 -310.51953125 528.3125 C-310.04604248 527.70438477 -309.57255371 527.09626953 -309.0847168 526.46972656 C-301.11155865 517.7999676 -301.11155865 517.7999676 -296.83203125 507.9375 C-295.84203125 507.9375 -294.85203125 507.9375 -293.83203125 507.9375 C-293.5680957 507.37337402 -293.30416016 506.80924805 -293.03222656 506.22802734 C-291.73551437 503.75330119 -290.24802965 501.56598334 -288.62890625 499.2890625 C-287.66355957 497.92164917 -287.66355957 497.92164917 -286.67871094 496.52661133 C-285.98680664 495.54845459 -285.29490234 494.57029785 -284.58203125 493.5625 C-260.78802645 460.15680454 -260.78802645 460.15680454 -242.08203125 423.8125 C-240.83203125 420.9375 -240.83203125 420.9375 -238.83203125 419.9375 C-238.13815637 417.94677599 -237.47811587 415.94424341 -236.83203125 413.9375 C-235.67652287 411.25646487 -234.40907038 408.63106209 -233.14453125 406 C-232.4230731 404.48051812 -231.70172087 402.96098594 -230.98046875 401.44140625 C-229.95041028 399.28067253 -228.91939343 397.12040046 -227.88769531 394.96044922 C-224.38263682 387.60673669 -221.03195356 380.20645354 -217.89453125 372.6875 C-217.58765381 371.95982422 -217.28077637 371.23214844 -216.96459961 370.48242188 C-215.73108761 367.4830438 -214.83203125 365.21301391 -214.83203125 361.9375 C-214.17203125 361.9375 -213.51203125 361.9375 -212.83203125 361.9375 C-212.70957031 361.22722656 -212.58710937 360.51695312 -212.4609375 359.78515625 C-211.59787741 355.87726303 -210.12254748 352.28078186 -208.671875 348.55859375 C-207.62860713 345.76135371 -207.62860713 345.76135371 -207.83203125 341.9375 C-207.17203125 341.9375 -206.51203125 341.9375 -205.83203125 341.9375 C-205.65969971 341.30150879 -205.48736816 340.66551758 -205.30981445 340.01025391 C-203.89398637 334.80034311 -202.45981466 329.59620444 -201 324.3984375 C-191.16002132 289.28816665 -183.79848422 254.21065864 -179.83203125 217.9375 C-180.49203125 217.6075 -181.15203125 217.2775 -181.83203125 216.9375 C-181.17203125 216.6075 -180.51203125 216.2775 -179.83203125 215.9375 C-179.54380126 213.3077728 -179.364148 210.76273025 -179.26953125 208.125 C-178.90098331 199.30337385 -178.90098331 199.30337385 -177.83203125 195.9375 C-178.49203125 195.6075 -179.15203125 195.2775 -179.83203125 194.9375 C-179.17203125 194.9375 -178.51203125 194.9375 -177.83203125 194.9375 C-177.842024 193.44198608 -177.842024 193.44198608 -177.85221863 191.91625977 C-177.91314838 182.50045457 -177.95806075 173.08468961 -177.98746777 163.66873169 C-178.00309467 158.82838699 -178.02427845 153.98820201 -178.05834961 149.14794922 C-178.09104935 144.4730371 -178.10890663 139.7982782 -178.11666298 135.1232605 C-178.12218747 133.34355255 -178.13297538 131.56385257 -178.14922142 129.78421021 C-178.1711371 127.28304201 -178.17399233 124.78249942 -178.17260742 122.28125 C-178.18339325 121.55260239 -178.19417908 120.82395477 -178.20529175 120.07322693 C-178.16246283 112.88094901 -175.84273028 106.29808089 -171.4765625 100.546875 C-167.24453038 96.40531388 -161.95733613 94.18965482 -156.14453125 93.5 C-148.73594762 94.47849218 -143.78492943 96.31242278 -138.83203125 101.9375 C-129.37933982 114.5329677 -132.72945983 134.45666889 -132.86791992 149.45361328 C-133.26514899 162.85485248 -133.26514899 162.85485248 -130.83203125 175.9375 C-126.32834082 178.44832936 -121.41268055 179.43737362 -116.39453125 178.1875 C-115.21890625 177.775 -114.04328125 177.3625 -112.83203125 176.9375 C-111.84203125 176.6075 -110.85203125 176.2775 -109.83203125 175.9375 C-107.55352113 169.44255958 -107.54438236 163.15041273 -107.56079102 156.32421875 C-107.55556427 155.18497955 -107.55033752 154.04574036 -107.54495239 152.87197876 C-107.53474508 150.40902069 -107.52893772 147.94604125 -107.527071 145.48306274 C-107.52339696 141.58194986 -107.50664234 137.68108881 -107.48631287 133.7800293 C-107.43730688 124.09367678 -107.40625921 114.40727736 -107.38500977 104.7208252 C-107.36701295 96.52793223 -107.33759261 88.33527042 -107.29096794 80.14248657 C-107.27933275 77.55898961 -107.27338772 74.97546042 -107.27328682 72.39193726 C-107.27309445 68.77802732 -107.25480463 65.16461394 -107.23266602 61.55078125 C-107.23724319 60.48872467 -107.24182037 59.42666809 -107.24653625 58.33242798 C-107.16001395 49.43336528 -105.17844479 41.51711508 -98.83203125 34.9375 C-92.58026172 29.9034148 -85.4950542 30.51696825 -77.83203125 30.9375 C-77.83203125 31.5975 -77.83203125 32.2575 -77.83203125 32.9375 C-77.15140625 33.1025 -76.47078125 33.2675 -75.76953125 33.4375 C-70.71803566 36.01698711 -66.87215747 40.35073174 -64.75305176 45.62089539 C-63.72948079 49.3067853 -63.56680396 52.44495011 -63.54492188 56.26879883 C-63.53808884 56.97698257 -63.5312558 57.68516632 -63.5242157 58.41481018 C-63.51068956 59.94360528 -63.5015967 61.47244482 -63.49650574 63.00129128 C-63.48816569 65.42815712 -63.46761259 67.85465576 -63.44396973 70.28141785 C-63.39588588 75.43755684 -63.3628841 80.5937329 -63.33203125 85.75 C-63.29623712 91.71870614 -63.25410554 97.68723243 -63.1960907 103.65576744 C-63.17618645 106.03362397 -63.16773547 108.41133888 -63.15979004 110.78926086 C-63.37973206 123.41966788 -63.37973206 123.41966788 -58.83203125 134.875 C-54.01880273 138.18409461 -49.14949214 139.39222984 -43.32421875 138.59375 C-39.14515458 137.43519756 -37.19010405 136.35823555 -34.33203125 133 C-32.38265573 129.02002497 -31.70722051 125.88509086 -31.7074585 121.47509766 C-31.70489548 120.58662643 -31.70233246 119.69815521 -31.69969177 118.78276062 C-31.70284142 117.33181755 -31.70284142 117.33181755 -31.70605469 115.8515625 C-31.70418655 114.82662186 -31.70231842 113.80168121 -31.70039368 112.74568176 C-31.69639008 110.51892346 -31.69431488 108.29216104 -31.69393158 106.06539917 C-31.69051109 101.32081568 -31.66913766 96.5763686 -31.64870071 91.83183289 C-31.61072854 83.00066374 -31.57941026 74.16963903 -31.58154297 65.33837891 C-31.58233278 59.19329233 -31.55884766 53.04870393 -31.51966095 46.90374756 C-31.50923785 44.56917565 -31.50764951 42.23454598 -31.51531219 39.89996338 C-31.59396429 13.27015005 -31.59396429 13.27015005 -23.98895264 4.91186523 C-17.15269831 -1.44705736 -8.944626 -3.35577693 0 0 Z M-59.83203125 188.9375 C-64.22014851 195.46305502 -65.3068451 201.751241 -64.14453125 209.5 C-62.9211606 215.40620663 -61.19017427 219.32967521 -56.08203125 222.8125 C-50.49039671 224.7480658 -45.97963089 224.69486045 -40.58203125 222.4375 C-37.03174372 220.4037723 -35.04521063 218.32198486 -33.45703125 214.54296875 C-31.75053554 207.42901475 -31.42705066 199.0356288 -34.45703125 192.25 C-36.69727182 188.69197085 -38.91911659 186.64495367 -42.83203125 184.9375 C-49.41950263 183.99503017 -54.86330087 184.08995816 -59.83203125 188.9375 Z M-133.83203125 244.9375 C-136.61685638 247.90926941 -137.22461407 249.89639765 -137.14453125 253.9375 C-137.14066406 254.783125 -137.13679687 255.62875 -137.1328125 256.5 C-136.80932753 259.12148858 -136.27302096 260.73053569 -134.83203125 262.9375 C-130.31116385 265.55960309 -126.87546037 266.51581522 -121.6953125 265.5703125 C-118.38684863 264.44668326 -116.83852178 262.73442619 -114.83203125 259.9375 C-113.56616817 255.66521211 -113.67068091 253.44702738 -115.01953125 249.1875 C-117.40787552 244.90495166 -119.00641103 243.50547074 -123.64453125 242.0625 C-127.78614553 241.90008375 -130.21618487 242.95901802 -133.83203125 244.9375 Z M-60.83203125 712.9375 C-60.83203125 713.2675 -60.83203125 713.5975 -60.83203125 713.9375 C-56.54203125 713.9375 -52.25203125 713.9375 -47.83203125 713.9375 C-47.83203125 713.6075 -47.83203125 713.2775 -47.83203125 712.9375 C-52.12203125 712.9375 -56.41203125 712.9375 -60.83203125 712.9375 Z " fill="#6ED354" transform="translate(928.83203125,180.0625)"/>
<path d="M0 0 C4.84658502 3.8321835 7.33794507 8.14058339 9 14 C9.27796251 16.57402433 9.48238301 19.08328429 9.60327148 21.66374207 C9.64206893 22.40709279 9.68086637 23.15044352 9.7208395 23.91632003 C10.12968062 32.48625462 10.12510836 41.05260331 10.09765625 49.63012695 C10.09573111 51.42594867 10.09427014 53.22177094 10.0932312 55.01759338 C10.0900998 58.84729861 10.08387712 62.67698108 10.07516479 66.50667763 C10.06150651 72.57282457 10.05572034 78.63896431 10.05102539 84.7051239 C10.03998576 97.57425924 10.02043588 110.44337667 10 123.3125 C9.97792341 137.22842108 9.95736881 151.14433489 9.94658184 165.06027001 C9.9416254 171.08074833 9.93180601 177.10119242 9.91815186 183.12165701 C9.91065413 186.87304727 9.90736917 190.62443295 9.9051857 194.3758297 C9.90332572 196.10430557 9.89974915 197.83278065 9.89425278 199.56124878 C9.86861619 207.89041193 9.92145665 216.14316164 10.78887939 224.43921185 C11.09836754 228.19314945 10.98019596 231.9148296 10.88354492 235.67651367 C10.37099218 248.87679885 10.37099218 248.87679885 15 261 C19.50925602 265.50925602 22.54783177 266.17128166 28.8125 266.25 C30.03582031 266.27578125 31.25914062 266.3015625 32.51953125 266.328125 C36.22273105 265.97900179 37.97483172 265.0638491 41 263 C41.66 263 42.32 263 43 263 C43.28875 262.278125 43.5775 261.55625 43.875 260.8125 C44.56609856 259.0847536 45.28675941 257.36806115 46.05570126 255.67352486 C47.09297844 252.73675684 47.24390368 250.51864023 47.23377991 247.41110229 C47.23508408 246.29680344 47.23638824 245.18250458 47.23773193 244.03443909 C47.22897034 242.82021774 47.22020874 241.6059964 47.21118164 240.35498047 C47.20921028 238.42387169 47.20921028 238.42387169 47.2071991 236.45375061 C47.20426596 233.65025764 47.19501508 230.84688144 47.18089485 228.0434227 C47.15843332 223.56175672 47.15050077 219.08013303 47.14439392 214.59841919 C47.13169912 206.6415637 47.10667042 198.68478195 47.07904053 190.72796631 C46.81787458 115.2457998 46.81787458 115.2457998 47.25918388 91.35889053 C47.29147914 89.5770728 47.31946996 87.79517047 47.3426075 86.0132103 C47.66978484 62.49587285 47.66978484 62.49587285 56 54 C61.51243252 50.32504499 67.05361025 49.57908718 73.5 50.5 C79.55039369 53.09302587 83.70019748 56.69389876 86.9375 62.4375 C90.43529837 74.08881443 89.1326954 88.11811787 89.07516479 100.1870079 C89.0621746 102.9360506 89.05583104 105.68504403 89.05102539 108.43411255 C89.03973156 114.24776437 89.02042229 120.06137405 89 125.875 C88.97636089 132.66665458 88.95604703 139.45828736 88.94406128 146.2499733 C88.93757963 148.95890611 88.925086 151.66776886 88.91235352 154.37667847 C88.90872426 156.02309101 88.90537213 157.66950421 88.90234375 159.31591797 C88.89459427 160.44562012 88.89459427 160.44562012 88.88668823 161.59814453 C88.81714022 165.42553626 88.81714022 165.42553626 90 169 C90.04896923 170.59821042 90.03673333 172.19853517 89.9921875 173.796875 C89.96705078 175.23546875 89.96705078 175.23546875 89.94140625 176.703125 C89.89747173 178.71894408 89.84551311 180.73460578 89.78515625 182.75 C89.70382804 188.28031846 89.81558831 192.24265857 93 197 C96.60824215 200.37545233 99.54690626 200.89236343 104.375 201.25 C108.41924377 200.97108664 110.62552589 200.22408521 114 198 C117.58902924 193.04961484 118.12549489 189.02803134 118.1418457 183.00927734 C118.14532013 182.30153168 118.14879456 181.59378601 118.15237427 180.86459351 C118.15972398 179.32753662 118.16507355 177.79046916 118.16866493 176.2533989 C118.17584512 173.81424174 118.19152537 171.37528405 118.21000671 168.93618774 C118.26238766 162.00094418 118.31039557 155.06580801 118.32592773 148.13037109 C118.33605511 143.88619742 118.36550283 139.6425236 118.40724754 135.39854813 C118.41949903 133.78719503 118.42468957 132.17577113 118.42244911 130.56437302 C118.40325829 112.2486212 118.40325829 112.2486212 124.34077454 105.46908569 C127.80100837 102.30895093 131.50038882 100.19989632 136 99 C142.40921106 99.81516198 147.61694164 102.19950751 152 107 C157.04445095 115.48311205 157.15073441 124.41424479 157.12939453 134.01904297 C157.13111286 135.01676696 157.13283119 136.01449095 157.13460159 137.042449 C157.13898524 140.44237755 157.13593289 143.84225805 157.1328125 147.2421875 C157.13400866 149.77638262 157.13553682 152.31057759 157.13735962 154.84477234 C157.14151068 162.75666045 157.13489153 170.6685284 157.12713432 178.58041239 C157.12429311 181.63496519 157.12213141 184.68951832 157.11996174 187.74407166 C157.10559756 207.65837118 157.07566092 227.57263223 157.04021835 247.48690426 C157.01593431 261.19485839 156.99569082 274.90281117 156.9810791 288.61077881 C156.97951831 290.06725613 156.9779575 291.52373346 156.97639668 292.98021078 C156.97401453 295.20720538 156.97163322 297.43419999 156.96925307 299.66119459 C156.93612643 330.57879538 156.88522453 361.49631389 156.81288338 392.41384888 C156.8053596 395.65181466 156.79789256 398.88978057 156.79046631 402.12774658 C156.78862175 402.92889863 156.7867772 403.73005068 156.78487675 404.55548006 C156.75717233 416.72584665 156.74052262 428.89619711 156.72955322 441.06658936 C156.71689177 455.11385881 156.69018648 469.16102321 156.64558756 483.20822912 C156.62057554 491.22348797 156.60683382 499.23858956 156.60853469 507.2538881 C156.60856889 513.32084789 156.58765471 519.38754999 156.5588243 525.45444894 C156.55033337 527.92350891 156.54858192 530.39260303 156.55419946 532.86167121 C156.56084855 536.23057062 156.54290469 539.59849887 156.51898193 542.96730042 C156.5306225 544.41365223 156.5306225 544.41365223 156.54249823 545.88922328 C156.41195253 556.30051054 152.80773617 566.06468848 146 574 C137.45719466 582.32755356 128.92220648 587.11687359 117 588 C117 588.99 117 589.98 117 591 C116.34 590.67 115.68 590.34 115 590 C112.95944995 589.92934383 110.91665743 589.91578024 108.875 589.9375 C107.77929688 589.94652344 106.68359375 589.95554687 105.5546875 589.96484375 C104.29011719 589.98224609 104.29011719 589.98224609 103 590 C103 590.33 103 590.66 103 591 C101.35 591 99.7 591 98 591 C98 590.67 98 590.34 98 590 C89.75 590 81.5 590 73 590 C73 590.33 73 590.66 73 591 C71.02 591 69.04 591 67 591 C67 590.67 67 590.34 67 590 C50.5 590 34 590 17 590 C17 590.33 17 590.66 17 591 C14.69 591 12.38 591 10 591 C10 590.34 10 589.68 10 589 C8.67548828 588.77957031 8.67548828 588.77957031 7.32421875 588.5546875 C-4.98702328 586.25376794 -15.10453984 582.05504992 -23 572 C-31.38337184 559.0421825 -32.17488211 546.3592621 -32.09765625 531.3125 C-32.0962413 530.24757324 -32.09482635 529.18264648 -32.09336853 528.08544922 C-32.08782781 524.72360271 -32.07529454 521.36182592 -32.0625 518 C-32.05747661 515.71484473 -32.05291519 513.42968839 -32.04882812 511.14453125 C-32.03905039 506.14532541 -32.02488207 501.14615482 -32.00672913 496.14697266 C-32.00135187 494.43132206 -32 492.71565902 -32 491 C-31.99639257 489.06482424 -31.99275119 487.12964854 -31.9888916 485.19447327 C-31.97029703 475.84229585 -31.95729823 466.49012035 -31.94818783 457.13792896 C-31.94297097 451.96165427 -31.93589052 446.78539607 -31.92456055 441.60913086 C-31.91366799 436.60009792 -31.90771012 431.59108084 -31.90512276 426.58203697 C-31.90328109 424.67675209 -31.89968483 422.77146803 -31.89426994 420.86618996 C-31.88697406 418.19308235 -31.88601261 415.52003985 -31.88647461 412.84692383 C-31.88287933 412.06688492 -31.87928406 411.28684601 -31.87557983 410.48316956 C-31.88218931 406.93148228 -32.02263334 403.51633815 -32.53392029 399.99954224 C-33.13189264 395.66056973 -32.87864937 391.51640219 -32.57080078 387.16040039 C-31.82079561 374.58604976 -31.85505981 362.02630332 -31.8671875 349.43359375 C-31.86651222 346.93587739 -31.86554034 344.43816109 -31.86428833 341.94044495 C-31.86282652 336.75268924 -31.8649197 331.56495093 -31.86962891 326.37719727 C-31.87422598 321.05361712 -31.87443055 315.73007171 -31.86962891 310.40649414 C-31.86384676 303.93846592 -31.86291419 297.47045797 -31.86618423 291.00242805 C-31.86685142 288.54596006 -31.86603233 286.0894912 -31.86370468 283.63302422 C-31.8611759 280.22073914 -31.86501967 276.80852034 -31.87060547 273.39624023 C-31.86858124 272.38181351 -31.86655701 271.36738678 -31.86447144 270.32221985 C-31.86729126 269.39619965 -31.87011108 268.47017944 -31.87301636 267.51609802 C-31.87339338 266.71153892 -31.87377041 265.90697981 -31.87415886 265.07804012 C-31.92213533 262.80308638 -31.92213533 262.80308638 -33 260 C-33.02383614 258.10171795 -33.02383614 258.10171795 -32.88357544 255.90226746 C-32.83583921 255.05563947 -32.78810299 254.20901148 -32.73892021 253.3367281 C-32.65570109 251.92904305 -32.65570109 251.92904305 -32.57080078 250.49291992 C-32.067076 240.571413 -31.88728856 230.66430122 -31.87060547 220.73168945 C-31.86932089 220.00284904 -31.86803631 219.27400862 -31.86671281 218.52308214 C-31.86029496 213.86686911 -31.86186672 209.21068099 -31.8656745 204.55446649 C-31.86825884 200.38471434 -31.8658435 196.21496406 -31.86428833 192.04521179 C-31.86248134 185.03656615 -31.86483119 178.02793113 -31.86962891 171.01928711 C-31.87504085 163.02325463 -31.87332528 155.0272478 -31.8678025 147.03121597 C-31.86319538 140.07143387 -31.86265795 133.11165929 -31.86524117 126.15187615 C-31.86676659 122.03746289 -31.86710553 117.92306146 -31.86370468 113.80864906 C-31.85031771 95.15378809 -32.05235001 76.52559614 -32.66167259 57.87966633 C-32.99257964 47.6434597 -33.01337397 37.48017499 -32.5625 27.25 C-32.50869536 25.82425874 -32.45597111 24.39847632 -32.40429688 22.97265625 C-32.2816471 19.64787885 -32.14559232 16.32386285 -32 13 C-31.34 13 -30.68 13 -30 13 C-29.89945313 12.26007813 -29.79890625 11.52015625 -29.6953125 10.7578125 C-28.52575938 6.11902315 -25.45569947 3.18669292 -22 0 C-14.40538921 -4.41868264 -7.64335785 -4.18221468 0 0 Z " fill="#36A3FE" transform="translate(173,304)"/>
<path d="M0 0 C-9.03710632 85.49711825 -57.35587435 171.72600487 -107.33935547 239.73779297 C-109.06779205 242.09234948 -110.78624974 244.45397666 -112.50390625 246.81640625 C-119.75260049 256.75661977 -127.22219974 266.46905387 -135 276 C-135.77859375 276.96164062 -136.5571875 277.92328125 -137.359375 278.9140625 C-141.80606064 284.38569342 -146.33591548 289.78246175 -150.90551758 295.15136719 C-153.90716098 298.68444736 -156.84163698 302.26427721 -159.75 305.875 C-162.86411301 309.71163204 -166.09976382 313.2634338 -169.6875 316.66015625 C-171.12099433 317.98662929 -171.12099433 317.98662929 -172 320 C-172.66 320 -173.32 320 -174 320 C-174.21914063 320.54527344 -174.43828125 321.09054687 -174.6640625 321.65234375 C-176.43553304 324.76536653 -178.83265866 327.08371719 -181.375 329.5625 C-181.85710937 330.04396484 -182.33921875 330.52542969 -182.8359375 331.02148438 C-185.41856143 333.5725273 -188.03041381 335.91003058 -191 338 C-194.60088097 336.42303339 -197.31420626 334.21081651 -200.3125 331.6875 C-203.43352866 329.09010598 -206.52932523 326.55153012 -209.875 324.25 C-212.94121298 322.04232666 -215.34869994 319.68286316 -218 317 C-224.17023903 311.19497761 -230.52765354 305.67440505 -237.11328125 300.34765625 C-245.17699707 293.78974934 -253.0245471 287.01675976 -260.69921875 280.0078125 C-263.53378798 277.53418163 -266.5120451 275.33452998 -269.6015625 273.19140625 C-270.06304687 272.79824219 -270.52453125 272.40507813 -271 272 C-271 271.34 -271 270.68 -271 270 C-271.78697266 269.67515625 -271.78697266 269.67515625 -272.58984375 269.34375 C-275.93484848 267.47878788 -278.69201303 265.00761925 -281.5625 262.5 C-282.18165283 261.96463623 -282.80080566 261.42927246 -283.4387207 260.87768555 C-288.15781531 256.78043535 -292.76849893 252.57507595 -297.37109375 248.34765625 C-299.93529942 246.05777868 -302.56547558 243.8968288 -305.25 241.75 C-310.59858189 237.44504385 -315.57678171 232.80402099 -320.52246094 228.04785156 C-324.25077984 224.49736034 -328.06575056 221.38174524 -332.31176758 218.46362305 C-334.22783214 216.80247959 -334.97457534 215.29618565 -336 213 C-337.02781297 211.7823535 -338.09377164 210.59630144 -339.1875 209.4375 C-359.54774602 186.37381882 -363.24988713 150.59747662 -364 121 C-364.02723145 120.07155273 -364.05446289 119.14310547 -364.08251953 118.18652344 C-365.0627111 79.43505037 -361.59746366 40.17197417 -355 2 C-350.73208479 2.46545425 -348.47857681 5.15293819 -345.6484375 8.09375 C-345.1483316 8.60047241 -344.64822571 9.10719482 -344.13296509 9.62927246 C-342.53970995 11.24589514 -340.95697556 12.8723443 -339.375 14.5 C-337.78418756 16.12587564 -336.19125458 17.74959243 -334.59561157 19.37072754 C-333.60409831 20.37921733 -332.61568805 21.39076915 -331.63070679 22.40563965 C-329.07568526 25.04301338 -329.07568526 25.04301338 -326 27 C-326 27.66 -326 28.32 -326 29 C-325.01 29.33 -324.02 29.66 -323 30 C-321.640625 31.41796875 -321.640625 31.41796875 -320.25 33.1875 C-317.61576594 36.38527667 -314.79274944 39.00866178 -311.61328125 41.65234375 C-309.60792454 43.32752066 -307.74098287 45.05009919 -306 47 C-306 47.66 -306 48.32 -306 49 C-305.34 49 -304.68 49 -304 49 C-304 49.66 -304 50.32 -304 51 C-303.44517 51.22951292 -302.89034 51.45902584 -302.31869698 51.6954937 C-299.34895078 53.36628236 -297.3059987 55.45499396 -294.90084839 57.87210083 C-294.40064843 58.37200307 -293.90044848 58.87190531 -293.38509095 59.3869561 C-291.71141097 61.06202426 -290.04498708 62.74412868 -288.37841797 64.42626953 C-287.17956268 65.62896328 -285.98025113 66.83120237 -284.78051758 68.03302002 C-282.19890453 70.62095463 -279.62043145 73.21196389 -277.04430771 75.8053627 C-272.97430363 79.90238402 -268.89670655 83.99179053 -264.81790161 88.08004761 C-256.16434795 96.75580767 -247.51926313 105.43998459 -238.875 114.125 C-229.53670204 123.50729663 -220.19699095 132.88815908 -210.84751618 142.25932014 C-206.78923785 146.32759123 -202.73589238 150.40069646 -198.68619132 154.47750497 C-196.1719119 157.00665018 -193.65354341 159.53169253 -191.13401794 162.05561066 C-189.96236949 163.23101895 -188.79245898 164.40816244 -187.6243782 165.58711624 C-186.03585099 167.18996847 -184.44136527 168.78664152 -182.84518433 170.38186646 C-181.95255323 171.27893877 -181.05992214 172.17601109 -180.14024162 173.10026741 C-178.22766569 175.22127859 -178.22766569 175.22127859 -176 175 C-174.5918868 173.61088239 -174.5918868 173.61088239 -173.1875 171.8125 C-170.59021366 168.68813599 -167.99722691 165.747458 -165 163 C-164.34 163 -163.68 163 -163 163 C-163 162.34 -163 161.68 -163 161 C-158.69767442 156.23255814 -158.69767442 156.23255814 -155 155 C-154.67 154.01 -154.34 153.02 -154 152 C-153.34 152 -152.68 152 -152 152 C-152 151.34 -152 150.68 -152 150 C-150.42578125 148.484375 -150.42578125 148.484375 -148.3125 146.75 C-144.78266661 143.75893065 -141.95726175 140.56387954 -139 137 C-137.22320459 135.40941895 -135.40837127 133.88966468 -133.55078125 132.39453125 C-131.7459798 130.88740659 -131.7459798 130.88740659 -130 128 C-129.34 128 -128.68 128 -128 128 C-127.67 127.01 -127.34 126.02 -127 125 C-125.3984375 123.421875 -125.3984375 123.421875 -123.375 121.75 C-117.44354799 116.70826579 -112.13444613 111.35937806 -107.26171875 105.28515625 C-106.84535156 104.86105469 -106.42898438 104.43695312 -106 104 C-105.34 104 -104.68 104 -104 104 C-104 103.34 -104 102.68 -104 102 C-102.25839766 100.36502637 -100.40190406 98.92214608 -98.53125 97.4375 C-98.0259375 96.963125 -97.520625 96.48875 -97 96 C-97 95.34 -97 94.68 -97 94 C-96.40445312 93.74476563 -95.80890625 93.48953125 -95.1953125 93.2265625 C-92.78516269 91.87996634 -91.57123498 90.53303717 -89.875 88.375 C-88.3671875 86.4609375 -88.3671875 86.4609375 -87 85 C-86.34 85 -85.68 85 -85 85 C-84.731875 84.360625 -84.46375 83.72125 -84.1875 83.0625 C-83 81 -83 81 -80 80 C-79.67 79.01 -79.34 78.02 -79 77 C-78.34 77 -77.68 77 -77 77 C-77 76.34 -77 75.68 -77 75 C-76.34 75 -75.68 75 -75 75 C-74.67 74.01 -74.34 73.02 -74 72 C-72.8908288 70.82360631 -71.77188733 69.65463529 -70.6015625 68.5390625 C-69.36411576 67.34990636 -68.15602542 66.13015647 -66.9609375 64.8984375 C-66.25195312 64.16882813 -65.54296875 63.43921875 -64.8125 62.6875 C-64.13832031 61.99011719 -63.46414063 61.29273438 -62.76953125 60.57421875 C-61 59 -61 59 -59 59 C-59 58.34 -59 57.68 -59 57 C-56.625 54.375 -56.625 54.375 -54 52 C-53.34 52 -52.68 52 -52 52 C-51.61521484 51.10667969 -51.61521484 51.10667969 -51.22265625 50.1953125 C-49.89030313 47.80303629 -48.56631395 46.57271801 -46.4375 44.875 C-43.78974334 42.79096366 -43.78974334 42.79096366 -42 40 C-41.34 40 -40.68 40 -40 40 C-40 39.34 -40 38.68 -40 38 C-36.53197781 34.20685074 -32.65411047 30.98727412 -28.671875 27.74609375 C-26.80448477 25.79580536 -26.56757186 24.57590307 -26 22 C-24.34302621 21.30959426 -22.6744239 20.6469365 -21 20 C-19.2815017 18.36742661 -17.63958564 16.70910024 -16 15 C-14.75723313 13.7414869 -13.51228767 12.48512285 -12.265625 11.23046875 C-11.28142578 10.23950195 -11.28142578 10.23950195 -10.27734375 9.22851562 C-9.60832031 8.55498047 -8.93929688 7.88144531 -8.25 7.1875 C-7.56550781 6.49462891 -6.88101562 5.80175781 -6.17578125 5.08789062 C-5.52480469 4.43369141 -4.87382813 3.77949219 -4.203125 3.10546875 C-3.31608887 2.21057739 -3.31608887 2.21057739 -2.41113281 1.29760742 C-1 0 -1 0 0 0 Z " fill="#36A3FE" transform="translate(711,426)"/>
<path d="M0 0 C6.80429883 5.8770883 8.95842922 12.98490164 9.875 21.6875 C10.37070202 31.52771252 9.08084954 40.7356967 2.546875 48.41796875 C-2.71718696 53.80166848 -7.40196924 56.63235335 -15 57 C-21.65255891 55.73485409 -28.27189902 53.63988009 -32.47265625 48.03515625 C-36 42.60167131 -36 42.60167131 -36 40 C-36.66 39.67 -37.32 39.34 -38 39 C-39.87415096 26.57619285 -39.65268174 14.91811809 -32.65625 4.09765625 C-30.38245415 1.21787236 -28.20804539 -0.25015706 -25 -2 C-24.34 -2.66 -23.68 -3.32 -23 -4 C-14.22124035 -6.58198813 -7.4735574 -4.95733456 0 0 Z " fill="#6FD254" transform="translate(936,108)"/>
<path d="M0 0 C11.48192119 -0.64105019 19.86800598 -0.46547293 28.875 7.5625 C34.76950361 15.78543742 36.17311801 26.17967194 35 36 C33.32903379 43.55395377 30.16178687 50.14801995 24 55 C17.50699187 58.55592881 11.19989903 60.10395531 4 58 C-2.27080515 55.60499023 -7.10046161 50.95429198 -10.00390625 44.91015625 C-14.09732455 34.29099864 -14.42011227 23.60447535 -10 13 C-8.00156618 9.34768991 -5.94415806 6.84290478 -2.75 4.25 C-1.38875 3.13625 -1.38875 3.13625 0 2 C0 1.34 0 0.68 0 0 Z " fill="#6FD254" transform="translate(832,136)"/>
<path d="M0 0 C2.8486557 2.69811698 4.92851152 5.68037416 7 9 C7.43699219 9.68191406 7.87398437 10.36382812 8.32421875 11.06640625 C12.62892198 19.02633117 12.31392184 29.36752875 9.9375 37.9375 C7.28758846 44.46984008 2.8389961 49.41704115 -3.5 52.5 C-9.82527214 54.90809853 -14.9875603 54.45599633 -21.15234375 51.9140625 C-23.79469513 50.60685273 -25.83296254 48.99133172 -28 47 C-28.928125 46.175 -29.85625 45.35 -30.8125 44.5 C-33 42 -33 42 -33 38 C-33.350625 36.88625 -33.70125 35.7725 -34.0625 34.625 C-36.02615752 27.01226977 -35.50906916 18.10910942 -31.9375 11.0625 C-28.40741631 5.59393105 -23.83304648 1.32979733 -17.9375 -1.4375 C-12.04328417 -2.56617963 -5.46974484 -2.77794128 0 0 Z " fill="#6FD255" transform="translate(786,200)"/>
<path d="M0 0 C6.61849333 4.20274327 10.74829357 9.79995783 12.58203125 17.41796875 C14.0494192 26.48286065 13.5374795 35.75477177 8.30078125 43.51953125 C4.28936469 48.39785513 0.4073497 52.08294053 -6 53 C-12.27335504 53.12824576 -17.87043512 51.89177931 -22.59375 47.52734375 C-29.37483925 40.23102468 -31.21085288 31.83566669 -31 22 C-29.73692804 13.97270799 -27.11824307 7.97965449 -21.1875 2.3125 C-13.5262676 -3.245649 -8.60075177 -3.81843721 0 0 Z " fill="#38A3FC" transform="translate(171,230)"/>
<path d="M0 0 C6.48867073 6.85945191 7.64723854 13.27044144 7.40234375 22.48828125 C6.67495873 28.83701067 4.57811786 33.42704871 0.05078125 37.9453125 C-4.8290285 41.71249058 -9.22262463 42.902073 -15.359375 42.5078125 C-21.93213024 41.24382111 -25.68158669 37.83106272 -29.4375 32.4375 C-33.38494365 26.23130113 -33.67094674 20.23663983 -33 13 C-31.52318925 6.78138123 -29.07270128 2.00088177 -23.91796875 -1.87890625 C-15.90039371 -6.56535032 -7.21538056 -5.90349318 0 0 Z " fill="#38A3FD" transform="translate(254,297)"/>
<path d="M0 0 C6.48662088 5.43065934 9.16992286 11.41928003 10.0625 19.75 C9.20992925 27.70732697 6.67555856 33.82102308 0.6875 39.25 C-3.59413011 42.26660303 -7.57415774 42.90099076 -12.71484375 42.72265625 C-18.17298615 41.72952057 -22.5708527 38.76143617 -25.7265625 34.2109375 C-29.80515804 26.37651298 -30.32870627 18.63137665 -28.3125 10.0625 C-26.50333327 4.54925731 -23.29313093 1.98839287 -18.3125 -0.75 C-12.10781892 -3.7863333 -6.00356268 -3.17169349 0 0 Z " fill="#38A3FD" transform="translate(320.3125,346.75)"/>
<path d="M0 0 C0.33 0 0.66 0 1 0 C2.22823191 12.02425976 3.3716832 23.89964694 3 36 C2.01 36.495 2.01 36.495 1 37 C-0.02361309 32.78866447 -0.11489283 28.83810136 -0.09765625 24.51171875 C-0.0962413 23.80852005 -0.09482635 23.10532135 -0.09336853 22.3808136 C-0.08780109 20.14966456 -0.07525475 17.91861836 -0.0625 15.6875 C-0.05748079 14.16862125 -0.05291862 12.64974091 -0.04882812 11.13085938 C-0.03784236 7.42053988 -0.02060034 3.71027999 0 0 Z " fill="#3BA0F5" transform="translate(141,508)"/>
<path d="M0 0 C-0.51958285 4.37934119 -1.05675742 8.68803391 -2 13 C-4.1385485 10.8614515 -4.42655063 9.86724686 -5 7 C-5.7425 7.78375 -6.485 8.5675 -7.25 9.375 C-9.59421977 11.61266433 -11.14324985 12.69370826 -14 14 C-2.28571429 0 -2.28571429 0 0 0 Z " fill="#43AAF0" transform="translate(711,426)"/>
<path d="M0 0 C0.33 0.66 0.66 1.32 1 2 C1.7425 2.268125 2.485 2.53625 3.25 2.8125 C6.70760124 4.30555508 8.63799355 6.08222733 11 9 C10.8125 11.3125 10.8125 11.3125 10 13 C6 8.25 6 8.25 6 6 C-0.48343811 3.36903961 -6.02330843 2.60674181 -13 3 C-10.41073669 0.41073669 -8.97294721 0.62601957 -5.375 0.375 C-4.37210938 0.30023438 -3.36921875 0.22546875 -2.3359375 0.1484375 C-1.56507813 0.09945312 -0.79421875 0.05046875 0 0 Z " fill="#76DA59" transform="translate(850,211)"/>
<path d="M0 0 C0.99 0.33 1.98 0.66 3 1 C1.4324482 2.7021698 -0.15459784 4.38640554 -1.75 6.0625 C-2.63171875 7.00222656 -3.5134375 7.94195312 -4.421875 8.91015625 C-7 11 -7 11 -9.328125 10.80859375 C-9.87984375 10.54175781 -10.4315625 10.27492188 -11 10 C-11 9.34 -11 8.68 -11 8 C-9.9171875 7.6596875 -9.9171875 7.6596875 -8.8125 7.3125 C-5.45850839 5.74730392 -3.49514416 3.70307284 -1 1 C-0.67 0.67 -0.34 0.34 0 0 Z " fill="#3BA6F5" transform="translate(696,440)"/>
<path d="M0 0 C0.33 1.32 0.66 2.64 1 4 C1.66 4 2.32 4 3 4 C3.18451025 14.55808656 3.18451025 14.55808656 2 19 C1.67 19 1.34 19 1 19 C0.34513908 12.63849395 -0.12068471 6.39628979 0 0 Z " fill="#3A9FF4" transform="translate(141,839)"/>
<path d="M0 0 C0.66 0 1.32 0 2 0 C0.59023295 3.03852705 -1.08870228 5.5939595 -3.125 8.25 C-3.66382813 8.95640625 -4.20265625 9.6628125 -4.7578125 10.390625 C-5.16773438 10.92171875 -5.57765625 11.4528125 -6 12 C-6.33 11.01 -6.66 10.02 -7 9 C-6.34 9 -5.68 9 -5 9 C-5 7.68 -5 6.36 -5 5 C-4.34 5 -3.68 5 -3 5 C-2.690625 4.360625 -2.38125 3.72125 -2.0625 3.0625 C-1 1 -1 1 0 0 Z " fill="#3FA9F6" transform="translate(599,668)"/>
<path d="M0 0 C0.33 0 0.66 0 1 0 C1.33 3.3 1.66 6.6 2 10 C2.33 10 2.66 10 3 10 C3.125 15.75 3.125 15.75 2 18 C1.34 17.67 0.68 17.34 0 17 C0 11.39 0 5.78 0 0 Z " fill="#3B9FF3" transform="translate(141,597)"/>
<path d="M0 0 C1.6875 1.1875 1.6875 1.1875 2.6875 4.1875 C1.718125 3.878125 0.74875 3.56875 -0.25 3.25 C-4.54914491 2.00782903 -8.86592634 1.57065147 -13.3125 1.1875 C-13.3125 0.8575 -13.3125 0.5275 -13.3125 0.1875 C-8.77171491 -0.88092002 -4.48528472 -1.57591085 0 0 Z " fill="#77DB58" transform="translate(928.3125,179.8125)"/>
<path d="M0 0 C0.33 0 0.66 0 1 0 C1.09688221 5.44693314 1.12862175 10.63904667 0 16 C-0.33 16 -0.66 16 -1 16 C-1.33 12.7 -1.66 9.4 -2 6 C-1.34 6 -0.68 6 0 6 C0 4.02 0 2.04 0 0 Z M-2 16 C-1.67 16 -1.34 16 -1 16 C-1 17.65 -1 19.3 -1 21 C-1.33 21 -1.66 21 -2 21 C-2 19.35 -2 17.7 -2 16 Z " fill="#77DB58" transform="translate(750,402)"/>
<path d="M0 0 C0.33 0 0.66 0 1 0 C2.39599137 5.75846439 2.39599137 11.24153561 1 17 C0.67 17 0.34 17 0 17 C-0.89316269 11.06390334 -0.97040422 5.93024803 0 0 Z " fill="#3CA0F3" transform="translate(328,358)"/>
<path d="M0 0 C5.71658336 -0.45732667 8.48649253 0.47726246 13 4 C12.67 4.99 12.34 5.98 12 7 C11.13375 6.38125 10.2675 5.7625 9.375 5.125 C6.24371814 3.15345216 3.53615531 2.01033009 0 1 C0 0.67 0 0.34 0 0 Z " fill="#76D858" transform="translate(774,275)"/>
<path d="M0 0 C0.66 0 1.32 0 2 0 C1.52309796 1.62566606 1.04340334 3.25051311 0.5625 4.875 C0.29566406 5.77992188 0.02882813 6.68484375 -0.24609375 7.6171875 C-1 10 -1 10 -2 12 C-2.66 12 -3.32 12 -4 12 C-3.52494322 10.18641846 -3.04483958 8.37415821 -2.5625 6.5625 C-2.29566406 5.55316406 -2.02882813 4.54382813 -1.75390625 3.50390625 C-1 1 -1 1 0 0 Z " fill="#3EA8F8" transform="translate(684,514)"/>
<path d="M0 0 C0.66 0.33 1.32 0.66 2 1 C0.02 3.97 -1.96 6.94 -4 10 C-4.33 9.01 -4.66 8.02 -5 7 C-4.00390625 5.17578125 -4.00390625 5.17578125 -2.5625 3.3125 C-2.08941406 2.68988281 -1.61632812 2.06726563 -1.12890625 1.42578125 C-0.75636719 0.95527344 -0.38382813 0.48476563 0 0 Z " fill="#40A9F6" transform="translate(621,637)"/>
<path d="M0 0 C-0.33 2.64 -0.66 5.28 -1 8 C-1.66 7.01 -2.32 6.02 -3 5 C-3.66 4.67 -4.32 4.34 -5 4 C-1.125 0 -1.125 0 0 0 Z " fill="#50ADC8" transform="translate(711,426)"/>
<path d="M0 0 C4.95 0 9.9 0 15 0 C15 0.33 15 0.66 15 1 C10.05 1 5.1 1 0 1 C0 0.67 0 0.34 0 0 Z " fill="#71CA50" transform="translate(809,894)"/>
<path d="M0 0 C3.3 0 6.6 0 10 0 C10 0.33 10 0.66 10 1 C3.375 2.25 3.375 2.25 0 0 Z " fill="#3B9CED" transform="translate(205,894)"/>
<path d="M0 0 C2.97 0 5.94 0 9 0 C9 0.33 9 0.66 9 1 C6.03 1 3.06 1 0 1 C0 0.67 0 0.34 0 0 Z " fill="#3B9AEB" transform="translate(277,894)"/>
<path d="M0 0 C2.97 0 5.94 0 9 0 C9 0.33 9 0.66 9 1 C6.03 1 3.06 1 0 1 C0 0.67 0 0.34 0 0 Z " fill="#3C9CEE" transform="translate(216,894)"/>
<path d="M0 0 C2.31 0 4.62 0 7 0 C7 0.33 7 0.66 7 1 C4.69 1 2.38 1 0 1 C0 0.67 0 0.34 0 0 Z " fill="#70CA50" transform="translate(848,894)"/>
<path d="M0 0 C2.31 0 4.62 0 7 0 C7 0.33 7 0.66 7 1 C4.69 1 2.38 1 0 1 C0 0.67 0 0.34 0 0 Z " fill="#72C950" transform="translate(800,894)"/>
<path d="M0 0 C2.31 0 4.62 0 7 0 C7 0.33 7 0.66 7 1 C4.69 1 2.38 1 0 1 C0 0.67 0 0.34 0 0 Z " fill="#3B9BED" transform="translate(263,894)"/>
<path d="M0 0 C1.98 0 3.96 0 6 0 C6 0.33 6 0.66 6 1 C4.02 1.33 2.04 1.66 0 2 C0 1.34 0 0.68 0 0 Z " fill="#3B9CEF" transform="translate(248,894)"/>
<path d="M0 0 C2.31 0 4.62 0 7 0 C7 0.33 7 0.66 7 1 C4.69 1 2.38 1 0 1 C0 0.67 0 0.34 0 0 Z " fill="#3C9DEE" transform="translate(231,894)"/>
<path d="M0 0 C1.98 0 3.96 0 6 0 C6 0.33 6 0.66 6 1 C4.02 1 2.04 1 0 1 C0 0.67 0 0.34 0 0 Z " fill="#71CA50" transform="translate(856,894)"/>
<path d="M0 0 C1.98 0 3.96 0 6 0 C6 0.33 6 0.66 6 1 C4.02 1 2.04 1 0 1 C0 0.67 0 0.34 0 0 Z " fill="#71CB50" transform="translate(840,894)"/>
<path d="M0 0 C1.98 0 3.96 0 6 0 C6 0.33 6 0.66 6 1 C4.02 1 2.04 1 0 1 C0 0.67 0 0.34 0 0 Z " fill="#72CC50" transform="translate(825,894)"/>
<path d="M0 0 C0.33 0 0.66 0 1 0 C1 1.98 1 3.96 1 6 C0.67 6 0.34 6 0 6 C0 4.02 0 2.04 0 0 Z " fill="#77D054" transform="translate(748,746)"/>
<path d="M0 0 C0.33 0 0.66 0 1 0 C1 1.98 1 3.96 1 6 C0.67 6 0.34 6 0 6 C0 4.02 0 2.04 0 0 Z " fill="#77D155" transform="translate(748,714)"/>
<path d="M0 0 C0.33 0 0.66 0 1 0 C1 1.98 1 3.96 1 6 C0.67 6 0.34 6 0 6 C0 4.02 0 2.04 0 0 Z " fill="#78D458" transform="translate(896,249)"/>
<path d="M0 0 C0.33 0 0.66 0 1 0 C1 1.98 1 3.96 1 6 C0.67 6 0.34 6 0 6 C0 4.02 0 2.04 0 0 Z " fill="#77D457" transform="translate(896,242)"/>
<path d="M0 0 C0.33 0 0.66 0 1 0 C1 1.65 1 3.3 1 5 C0.67 5 0.34 5 0 5 C0 3.35 0 1.7 0 0 Z " fill="#71C650" transform="translate(748,842)"/>
<path d="M0 0 C0.33 0 0.66 0 1 0 C1 1.65 1 3.3 1 5 C0.67 5 0.34 5 0 5 C0 3.35 0 1.7 0 0 Z " fill="#76CE55" transform="translate(748,770)"/>
<path d="M0 0 C1.32 0 2.64 0 4 0 C3.67 0.66 3.34 1.32 3 2 C2.01 1.34 1.02 0.68 0 0 Z " fill="#76D756" transform="translate(882,366)"/>
<path d="M0 0 C1.485 0.99 1.485 0.99 3 2 C1.68 1.67 0.36 1.34 -1 1 C-0.67 0.67 -0.34 0.34 0 0 Z " fill="#3B96E5" transform="translate(246,290)"/>
<path d="M0 0 C0.33 0 0.66 0 1 0 C1 1.65 1 3.3 1 5 C0.67 5 0.34 5 0 5 C0 3.35 0 1.7 0 0 Z " fill="#78D556" transform="translate(896,275)"/>
<path d="M0 0 C1 4 1 4 1 4 Z " fill="#73C952" transform="translate(748,819)"/>
<path d="M0 0 C1 4 1 4 1 4 Z " fill="#75CE52" transform="translate(748,787)"/>
<path d="M0 0 C1 4 1 4 1 4 Z " fill="#78D255" transform="translate(748,707)"/>
<path d="M0 0 C1 4 1 4 1 4 Z " fill="#78D256" transform="translate(748,699)"/>
<path d="M0 0 C1 4 1 4 1 4 Z " fill="#76D555" transform="translate(896,299)"/>
<path d="M0 0 C1 4 1 4 1 4 Z " fill="#77D357" transform="translate(896,233)"/>
<path d="M0 0 C1 4 1 4 1 4 Z " fill="#77D356" transform="translate(896,214)"/>
<path d="M0 0 C3 1 3 1 3 1 Z " fill="#72CB4F" transform="translate(863,894)"/>
<path d="M0 0 C0.66 0.66 1.32 1.32 2 2 C1.34 2 0.68 2 0 2 C0 1.34 0 0.68 0 0 Z " fill="#3794E8" transform="translate(160,886)"/>
<path d="" fill="#73C951" transform="translate(0,0)"/>
<path d="" fill="#76CE53" transform="translate(0,0)"/>
<path d="M0 0 C0.99 0.495 0.99 0.495 2 1 C1.01 1.495 1.01 1.495 0 2 C0 1.34 0 0.68 0 0 Z " fill="#41A4EC" transform="translate(499,750)"/>
<path d="M0 0 C0.66 0 1.32 0 2 0 C1.67 0.66 1.34 1.32 1 2 C0.67 1.34 0.34 0.68 0 0 Z " fill="#78D55A" transform="translate(752,659)"/>
<path d="M0 0 C0.99 0.495 0.99 0.495 2 1 C1.01 1.495 1.01 1.495 0 2 C0 1.34 0 0.68 0 0 Z " fill="#3D9EEF" transform="translate(620,512)"/>
<path d="M0 0 C0.66 0 1.32 0 2 0 C1.67 0.66 1.34 1.32 1 2 C0.67 1.34 0.34 0.68 0 0 Z " fill="#53ADC8" transform="translate(700,432)"/>
<path d="M0 0 C3 1 3 1 3 1 Z " fill="#40A5FC" transform="translate(233,339)"/>
<path d="" fill="#78D457" transform="translate(0,0)"/>
<path d="" fill="#77D356" transform="translate(0,0)"/>
<path d="M0 0 C0.66 0 1.32 0 2 0 C1.67 0.66 1.34 1.32 1 2 C0.67 1.34 0.34 0.68 0 0 Z " fill="#3783CA" transform="translate(166,224)"/>
<path d="" fill="#78D457" transform="translate(0,0)"/>
<path d="" fill="#78D357" transform="translate(0,0)"/>
<path d="M0 0 C3 1 3 1 3 1 Z " fill="#76D158" transform="translate(843,209)"/>
<path d="" fill="#3C9DEE" transform="translate(0,0)"/>
<path d="M0 0 C2 1 2 1 2 1 Z " fill="#3C9AEE" transform="translate(259,894)"/>
<path d="M0 0 C2 1 2 1 2 1 Z " fill="#3A9EEE" transform="translate(226,894)"/>
<path d="" fill="#3A97E6" transform="translate(0,0)"/>
<path d="M0 0 C2 1 2 1 2 1 Z " fill="#3C94E4" transform="translate(170,892)"/>
<path d="" fill="#74CD51" transform="translate(0,0)"/>
<path d="" fill="#73CA52" transform="translate(0,0)"/>
<path d="" fill="#75CE52" transform="translate(0,0)"/>
<path d="" fill="#75CD53" transform="translate(0,0)"/>
<path d="M0 0 C2 1 2 1 2 1 Z " fill="#41A5EE" transform="translate(496,749)"/>
<path d="" fill="#75CF56" transform="translate(0,0)"/>
<path d="" fill="#77D155" transform="translate(0,0)"/>
<path d="" fill="#77D256" transform="translate(0,0)"/>
<path d="" fill="#75D155" transform="translate(0,0)"/>
<path d="" fill="#78D456" transform="translate(0,0)"/>
<path d="" fill="#7AD358" transform="translate(0,0)"/>
<path d="" fill="#78D558" transform="translate(0,0)"/>
<path d="M0 0 C2 1 2 1 2 1 Z " fill="#51B6DC" transform="translate(638,621)"/>
<path d="" fill="#47B0E8" transform="translate(0,0)"/>
<path d="" fill="#41A2F7" transform="translate(0,0)"/>
<path d="" fill="#4DB3E7" transform="translate(0,0)"/>
<path d="" fill="#4FB3E6" transform="translate(0,0)"/>
<path d="" fill="#77D55B" transform="translate(0,0)"/>
<path d="" fill="#3EA4FC" transform="translate(0,0)"/>
<path d="" fill="#4CAFE7" transform="translate(0,0)"/>
<path d="M0 0 C2 1 2 1 2 1 Z " fill="#50B4DF" transform="translate(699,477)"/>
<path d="" fill="#3DA6FD" transform="translate(0,0)"/>
<path d="M0 0 C2 1 2 1 2 1 Z " fill="#3B9DF0" transform="translate(381,448)"/>
<path d="" fill="#40A0EE" transform="translate(0,0)"/>
<path d="" fill="#74CF66" transform="translate(0,0)"/>
<path d="M0 0 C2 1 2 1 2 1 Z " fill="#76CD66" transform="translate(744,419)"/>
<path d="" fill="#72CD62" transform="translate(0,0)"/>
<path d="" fill="#3DA2F7" transform="translate(0,0)"/>
<path d="" fill="#73C955" transform="translate(0,0)"/>
<path d="M0 0 C2 1 2 1 2 1 Z " fill="#41A2FA" transform="translate(252,356)"/>
<path d="" fill="#77D559" transform="translate(0,0)"/>
<path d="M0 0 C2 1 2 1 2 1 Z " fill="#3FA6F8" transform="translate(247,353)"/>
<path d="" fill="#74CA54" transform="translate(0,0)"/>
<path d="" fill="#3BA2F8" transform="translate(0,0)"/>
<path d="" fill="#3DA1F8" transform="translate(0,0)"/>
<path d="M0 0 C2 1 2 1 2 1 Z " fill="#79D659" transform="translate(869,312)"/>
<path d="" fill="#76D556" transform="translate(0,0)"/>
<path d="" fill="#3C93E0" transform="translate(0,0)"/>
<path d="" fill="#76D356" transform="translate(0,0)"/>
<path d="M0 0 C2 1 2 1 2 1 Z " fill="#3B98E9" transform="translate(146,277)"/>
<path d="" fill="#71CB55" transform="translate(0,0)"/>
<path d="" fill="#79D457" transform="translate(0,0)"/>
<path d="M0 0 C2 1 2 1 2 1 Z " fill="#3788D0" transform="translate(166,227)"/>
<path d="M0 0 C2 1 2 1 2 1 Z " fill="#6DC650" transform="translate(761,200)"/>
<path d="M0 0 C2 1 2 1 2 1 Z " fill="#73D156" transform="translate(919,176)"/>
<path d="M0 0 C2 1 2 1 2 1 Z " fill="#74D457" transform="translate(913,164)"/>
<path d="" fill="#72CC53" transform="translate(0,0)"/>
<path d="M0 0 C2 1 2 1 2 1 Z " fill="#69C14C" transform="translate(941,112)"/>
<path d="" fill="#000A07" transform="translate(0,0)"/>
<path d="" fill="#72CB4D" transform="translate(0,0)"/>
<path d="" fill="#6FC151" transform="translate(0,0)"/>
<path d="" fill="#6EC54D" transform="translate(0,0)"/>
<path d="" fill="#70C54C" transform="translate(0,0)"/>
<path d="" fill="#3A9CED" transform="translate(0,0)"/>
<path d="" fill="#3E9CEC" transform="translate(0,0)"/>
<path d="" fill="#3F9AEE" transform="translate(0,0)"/>
<path d="" fill="#3C92E0" transform="translate(0,0)"/>
<path d="" fill="#70C24F" transform="translate(0,0)"/>
<path d="" fill="#3C95E5" transform="translate(0,0)"/>
<path d="" fill="#3894E4" transform="translate(0,0)"/>
<path d="" fill="#71C351" transform="translate(0,0)"/>
<path d="" fill="#3D97E7" transform="translate(0,0)"/>
<path d="" fill="#70C14E" transform="translate(0,0)"/>
<path d="" fill="#0B1A23" transform="translate(0,0)"/>
<path d="" fill="#3D98E6" transform="translate(0,0)"/>
<path d="" fill="#70C14F" transform="translate(0,0)"/>
<path d="" fill="#3998E7" transform="translate(0,0)"/>
<path d="" fill="#3792E2" transform="translate(0,0)"/>
<path d="" fill="#3D99E6" transform="translate(0,0)"/>
<path d="" fill="#70C451" transform="translate(0,0)"/>
<path d="" fill="#70C64F" transform="translate(0,0)"/>
<path d="" fill="#3691E0" transform="translate(0,0)"/>
<path d="" fill="#3998E6" transform="translate(0,0)"/>
<path d="" fill="#6EC451" transform="translate(0,0)"/>
<path d="" fill="#71C44E" transform="translate(0,0)"/>
<path d="" fill="#3A99E7" transform="translate(0,0)"/>
<path d="" fill="#70C950" transform="translate(0,0)"/>
<path d="" fill="#3A93E0" transform="translate(0,0)"/>
<path d="" fill="#6FC852" transform="translate(0,0)"/>
<path d="" fill="#6EC953" transform="translate(0,0)"/>
<path d="" fill="#3992E6" transform="translate(0,0)"/>
<path d="" fill="#73C951" transform="translate(0,0)"/>
<path d="" fill="#3897E5" transform="translate(0,0)"/>
<path d="" fill="#73C951" transform="translate(0,0)"/>
<path d="" fill="#78CC52" transform="translate(0,0)"/>
<path d="" fill="#75CC52" transform="translate(0,0)"/>
<path d="" fill="#74CE54" transform="translate(0,0)"/>
<path d="" fill="#3C9BEC" transform="translate(0,0)"/>
<path d="" fill="#64B55F" transform="translate(0,0)"/>
<path d="" fill="#3D98E7" transform="translate(0,0)"/>
<path d="" fill="#75CE56" transform="translate(0,0)"/>
<path d="" fill="#65BD5D" transform="translate(0,0)"/>
<path d="" fill="#3D98ED" transform="translate(0,0)"/>
<path d="" fill="#69C25C" transform="translate(0,0)"/>
<path d="" fill="#3E9BEF" transform="translate(0,0)"/>
<path d="" fill="#409DED" transform="translate(0,0)"/>
<path d="" fill="#3C9DED" transform="translate(0,0)"/>
<path d="" fill="#6EC859" transform="translate(0,0)"/>
<path d="" fill="#48A4D2" transform="translate(0,0)"/>
<path d="" fill="#6FCD56" transform="translate(0,0)"/>
<path d="" fill="#6FC956" transform="translate(0,0)"/>
<path d="" fill="#44A1E5" transform="translate(0,0)"/>
<path d="" fill="#70CC57" transform="translate(0,0)"/>
<path d="" fill="#7AD254" transform="translate(0,0)"/>
<path d="" fill="#71CA7A" transform="translate(0,0)"/>
<path d="" fill="#4DADD9" transform="translate(0,0)"/>
<path d="" fill="#41A5F8" transform="translate(0,0)"/>
<path d="" fill="#71CE55" transform="translate(0,0)"/>
<path d="" fill="#6ECA77" transform="translate(0,0)"/>
<path d="" fill="#71CB76" transform="translate(0,0)"/>
<path d="" fill="#71CB54" transform="translate(0,0)"/>
<path d="" fill="#41A2EA" transform="translate(0,0)"/>
<path d="" fill="#43A3EA" transform="translate(0,0)"/>
<path d="" fill="#72CC59" transform="translate(0,0)"/>
<path d="" fill="#56B3D1" transform="translate(0,0)"/>
<path d="" fill="#55B5D1" transform="translate(0,0)"/>
<path d="" fill="#70CC55" transform="translate(0,0)"/>
<path d="" fill="#70CF55" transform="translate(0,0)"/>
<path d="" fill="#43A7F2" transform="translate(0,0)"/>
<path d="" fill="#43A4F3" transform="translate(0,0)"/>
<path d="" fill="#40A4F5" transform="translate(0,0)"/>
<path d="" fill="#76D158" transform="translate(0,0)"/>
<path d="" fill="#3EA6F4" transform="translate(0,0)"/>
<path d="" fill="#3E9AEF" transform="translate(0,0)"/>
<path d="" fill="#79D154" transform="translate(0,0)"/>
<path d="" fill="#3FA5F7" transform="translate(0,0)"/>
<path d="" fill="#71CB6F" transform="translate(0,0)"/>
<path d="" fill="#75D256" transform="translate(0,0)"/>
<path d="" fill="#75D055" transform="translate(0,0)"/>
<path d="" fill="#74D056" transform="translate(0,0)"/>
<path d="" fill="#50B5DC" transform="translate(0,0)"/>
<path d="" fill="#77D456" transform="translate(0,0)"/>
<path d="" fill="#3EA2F6" transform="translate(0,0)"/>
<path d="" fill="#77D059" transform="translate(0,0)"/>
<path d="" fill="#73CE55" transform="translate(0,0)"/>
<path d="" fill="#3FA4F7" transform="translate(0,0)"/>
<path d="" fill="#3E9BEB" transform="translate(0,0)"/>
<path d="" fill="#70BA4F" transform="translate(0,0)"/>
<path d="" fill="#73D056" transform="translate(0,0)"/>
<path d="" fill="#3FA5F7" transform="translate(0,0)"/>
<path d="" fill="#40A5F4" transform="translate(0,0)"/>
<path d="" fill="#42A3F9" transform="translate(0,0)"/>
<path d="" fill="#50B5E0" transform="translate(0,0)"/>
<path d="" fill="#3EA2F4" transform="translate(0,0)"/>
<path d="" fill="#76D557" transform="translate(0,0)"/>
<path d="" fill="#78D454" transform="translate(0,0)"/>
<path d="" fill="#59B8DB" transform="translate(0,0)"/>
<path d="" fill="#75D155" transform="translate(0,0)"/>
<path d="" fill="#78D357" transform="translate(0,0)"/>
<path d="" fill="#41A6FA" transform="translate(0,0)"/>
<path d="" fill="#3B9DEE" transform="translate(0,0)"/>
<path d="" fill="#3D9BED" transform="translate(0,0)"/>
<path d="" fill="#41A6F8" transform="translate(0,0)"/>
<path d="" fill="#6ECC88" transform="translate(0,0)"/>
<path d="" fill="#4DB4E1" transform="translate(0,0)"/>
<path d="" fill="#76D556" transform="translate(0,0)"/>
<path d="" fill="#53B7E1" transform="translate(0,0)"/>
<path d="" fill="#3D98E9" transform="translate(0,0)"/>
<path d="" fill="#77D556" transform="translate(0,0)"/>
<path d="" fill="#48B0E9" transform="translate(0,0)"/>
<path d="" fill="#41A5FA" transform="translate(0,0)"/>
<path d="" fill="#79D556" transform="translate(0,0)"/>
<path d="" fill="#42A6F8" transform="translate(0,0)"/>
<path d="" fill="#78D758" transform="translate(0,0)"/>
<path d="" fill="#6FC987" transform="translate(0,0)"/>
<path d="" fill="#76D655" transform="translate(0,0)"/>
<path d="" fill="#3E9DEB" transform="translate(0,0)"/>
<path d="" fill="#6ECF7E" transform="translate(0,0)"/>
<path d="" fill="#7CD858" transform="translate(0,0)"/>
<path d="" fill="#77D655" transform="translate(0,0)"/>
<path d="" fill="#3FA7FA" transform="translate(0,0)"/>
<path d="" fill="#78DA58" transform="translate(0,0)"/>
<path d="" fill="#77D456" transform="translate(0,0)"/>
<path d="" fill="#7AD658" transform="translate(0,0)"/>
<path d="" fill="#52B4E4" transform="translate(0,0)"/>
<path d="" fill="#77D557" transform="translate(0,0)"/>
<path d="" fill="#40A5F8" transform="translate(0,0)"/>
<path d="" fill="#75D356" transform="translate(0,0)"/>
<path d="" fill="#3B9BED" transform="translate(0,0)"/>
<path d="" fill="#72CB7F" transform="translate(0,0)"/>
<path d="" fill="#73D356" transform="translate(0,0)"/>
<path d="" fill="#42A7FC" transform="translate(0,0)"/>
<path d="" fill="#7ACF55" transform="translate(0,0)"/>
<path d="" fill="#76D858" transform="translate(0,0)"/>
<path d="" fill="#76D856" transform="translate(0,0)"/>
<path d="" fill="#6FCA7E" transform="translate(0,0)"/>
<path d="" fill="#4AB0E5" transform="translate(0,0)"/>
<path d="" fill="#76D658" transform="translate(0,0)"/>
<path d="" fill="#77D65A" transform="translate(0,0)"/>
<path d="" fill="#74D859" transform="translate(0,0)"/>
<path d="" fill="#75D457" transform="translate(0,0)"/>
<path d="" fill="#77DA57" transform="translate(0,0)"/>
<path d="" fill="#76D757" transform="translate(0,0)"/>
<path d="" fill="#4DB1E4" transform="translate(0,0)"/>
<path d="" fill="#3DA7F9" transform="translate(0,0)"/>
<path d="" fill="#50B4E5" transform="translate(0,0)"/>
<path d="" fill="#40A5F8" transform="translate(0,0)"/>
<path d="" fill="#76D455" transform="translate(0,0)"/>
<path d="" fill="#77D757" transform="translate(0,0)"/>
<path d="" fill="#3EA3F3" transform="translate(0,0)"/>
<path d="" fill="#74D554" transform="translate(0,0)"/>
<path d="" fill="#6ECE82" transform="translate(0,0)"/>
<path d="" fill="#54B7D5" transform="translate(0,0)"/>
<path d="" fill="#40A7FC" transform="translate(0,0)"/>
<path d="" fill="#79D757" transform="translate(0,0)"/>
<path d="" fill="#50B4E2" transform="translate(0,0)"/>
<path d="" fill="#40A2F5" transform="translate(0,0)"/>
<path d="" fill="#40A4F8" transform="translate(0,0)"/>
<path d="" fill="#4DAFE8" transform="translate(0,0)"/>
<path d="" fill="#3A9FF5" transform="translate(0,0)"/>
<path d="" fill="#3CA0F5" transform="translate(0,0)"/>
<path d="" fill="#3BA3FA" transform="translate(0,0)"/>
<path d="" fill="#76D559" transform="translate(0,0)"/>
<path d="" fill="#78D75A" transform="translate(0,0)"/>
<path d="" fill="#3DA6FD" transform="translate(0,0)"/>
<path d="" fill="#3BA6FB" transform="translate(0,0)"/>
<path d="" fill="#3EA6FF" transform="translate(0,0)"/>
<path d="" fill="#77D757" transform="translate(0,0)"/>
<path d="" fill="#76D758" transform="translate(0,0)"/>
<path d="" fill="#54B6DF" transform="translate(0,0)"/>
<path d="" fill="#76D557" transform="translate(0,0)"/>
<path d="" fill="#71CE7E" transform="translate(0,0)"/>
<path d="" fill="#3EA8FC" transform="translate(0,0)"/>
<path d="" fill="#3D98E7" transform="translate(0,0)"/>
<path d="" fill="#52B5E0" transform="translate(0,0)"/>
<path d="" fill="#77D855" transform="translate(0,0)"/>
<path d="" fill="#3EA5FA" transform="translate(0,0)"/>
<path d="" fill="#3DA1F3" transform="translate(0,0)"/>
<path d="" fill="#3FA3F4" transform="translate(0,0)"/>
<path d="" fill="#74D057" transform="translate(0,0)"/>
<path d="" fill="#72CF81" transform="translate(0,0)"/>
<path d="" fill="#4DB5E8" transform="translate(0,0)"/>
<path d="" fill="#3D9CEE" transform="translate(0,0)"/>
<path d="" fill="#3EA5FC" transform="translate(0,0)"/>
<path d="" fill="#75D857" transform="translate(0,0)"/>
<path d="" fill="#75CF7E" transform="translate(0,0)"/>
<path d="" fill="#78D659" transform="translate(0,0)"/>
<path d="" fill="#76D857" transform="translate(0,0)"/>
<path d="" fill="#52B1E7" transform="translate(0,0)"/>
<path d="" fill="#76D858" transform="translate(0,0)"/>
<path d="" fill="#49B0EA" transform="translate(0,0)"/>
<path d="" fill="#3D9BEE" transform="translate(0,0)"/>
<path d="" fill="#76D559" transform="translate(0,0)"/>
<path d="" fill="#389CF3" transform="translate(0,0)"/>
<path d="" fill="#3D9EF2" transform="translate(0,0)"/>
<path d="" fill="#3FA5FB" transform="translate(0,0)"/>
<path d="" fill="#3E9CED" transform="translate(0,0)"/>
<path d="" fill="#3EA4FD" transform="translate(0,0)"/>
<path d="" fill="#4EB2E5" transform="translate(0,0)"/>
<path d="" fill="#79CF55" transform="translate(0,0)"/>
<path d="" fill="#74CD7B" transform="translate(0,0)"/>
<path d="" fill="#409FEF" transform="translate(0,0)"/>
<path d="" fill="#1D3952" transform="translate(0,0)"/>
<path d="" fill="#3FA0F3" transform="translate(0,0)"/>
<path d="" fill="#409EF2" transform="translate(0,0)"/>
<path d="" fill="#76D755" transform="translate(0,0)"/>
<path d="" fill="#70CC7D" transform="translate(0,0)"/>
<path d="" fill="#4CB1E8" transform="translate(0,0)"/>
<path d="" fill="#3D9BEF" transform="translate(0,0)"/>
<path d="" fill="#72CB89" transform="translate(0,0)"/>
<path d="" fill="#3F9CEF" transform="translate(0,0)"/>
<path d="" fill="#3BA0EF" transform="translate(0,0)"/>
<path d="" fill="#3EA5FA" transform="translate(0,0)"/>
<path d="" fill="#3DA8FA" transform="translate(0,0)"/>
<path d="" fill="#3EA8FB" transform="translate(0,0)"/>
<path d="" fill="#53B4DF" transform="translate(0,0)"/>
<path d="" fill="#77D558" transform="translate(0,0)"/>
<path d="" fill="#3EA4FB" transform="translate(0,0)"/>
<path d="" fill="#3EA5FC" transform="translate(0,0)"/>
<path d="" fill="#78D178" transform="translate(0,0)"/>
<path d="" fill="#3F9EEC" transform="translate(0,0)"/>
<path d="" fill="#3F9FEE" transform="translate(0,0)"/>
<path d="" fill="#3E9FF1" transform="translate(0,0)"/>
<path d="" fill="#409DED" transform="translate(0,0)"/>
<path d="" fill="#3A9DF4" transform="translate(0,0)"/>
<path d="" fill="#76D558" transform="translate(0,0)"/>
<path d="" fill="#4DB0E3" transform="translate(0,0)"/>
<path d="" fill="#3EA6FB" transform="translate(0,0)"/>
<path d="" fill="#75D357" transform="translate(0,0)"/>
<path d="" fill="#3FA6FD" transform="translate(0,0)"/>
<path d="" fill="#3FA3FD" transform="translate(0,0)"/>
<path d="" fill="#76D457" transform="translate(0,0)"/>
<path d="" fill="#399EF0" transform="translate(0,0)"/>
<path d="" fill="#40A2F1" transform="translate(0,0)"/>
<path d="" fill="#3B9CF1" transform="translate(0,0)"/>
<path d="" fill="#77CF7A" transform="translate(0,0)"/>
<path d="" fill="#3BA3FC" transform="translate(0,0)"/>
<path d="" fill="#78D758" transform="translate(0,0)"/>
<path d="" fill="#74CD81" transform="translate(0,0)"/>
<path d="" fill="#55B5DC" transform="translate(0,0)"/>
<path d="" fill="#76D758" transform="translate(0,0)"/>
<path d="" fill="#76D07E" transform="translate(0,0)"/>
<path d="" fill="#44A2F0" transform="translate(0,0)"/>
<path d="" fill="#3EA5FB" transform="translate(0,0)"/>
<path d="" fill="#389DF0" transform="translate(0,0)"/>
<path d="" fill="#3B9DEC" transform="translate(0,0)"/>
<path d="" fill="#74D659" transform="translate(0,0)"/>
<path d="" fill="#75CE7C" transform="translate(0,0)"/>
<path d="" fill="#75D95A" transform="translate(0,0)"/>
<path d="" fill="#3DA4FD" transform="translate(0,0)"/>
<path d="" fill="#3FA6FB" transform="translate(0,0)"/>
<path d="" fill="#76D858" transform="translate(0,0)"/>
<path d="" fill="#77D85A" transform="translate(0,0)"/>
<path d="" fill="#42A3EE" transform="translate(0,0)"/>
<path d="" fill="#4099E7" transform="translate(0,0)"/>
<path d="" fill="#3FA6FC" transform="translate(0,0)"/>
<path d="" fill="#75D75B" transform="translate(0,0)"/>
<path d="" fill="#429FF0" transform="translate(0,0)"/>
<path d="" fill="#50B2DE" transform="translate(0,0)"/>
<path d="" fill="#43A2ED" transform="translate(0,0)"/>
<path d="" fill="#40A1EC" transform="translate(0,0)"/>
<path d="" fill="#74D074" transform="translate(0,0)"/>
<path d="" fill="#73CF74" transform="translate(0,0)"/>
<path d="" fill="#4FB1DB" transform="translate(0,0)"/>
<path d="" fill="#44A3EB" transform="translate(0,0)"/>
<path d="" fill="#43A2ED" transform="translate(0,0)"/>
<path d="" fill="#44A1EB" transform="translate(0,0)"/>
<path d="" fill="#46A3EB" transform="translate(0,0)"/>
<path d="" fill="#45A5E7" transform="translate(0,0)"/>
<path d="" fill="#74D075" transform="translate(0,0)"/>
<path d="" fill="#46A4E6" transform="translate(0,0)"/>
<path d="" fill="#3EA6FE" transform="translate(0,0)"/>
<path d="" fill="#79D959" transform="translate(0,0)"/>
<path d="" fill="#75CD76" transform="translate(0,0)"/>
<path d="" fill="#77D957" transform="translate(0,0)"/>
<path d="" fill="#76D072" transform="translate(0,0)"/>
<path d="" fill="#74D959" transform="translate(0,0)"/>
<path d="" fill="#77D758" transform="translate(0,0)"/>
<path d="" fill="#3EA3FE" transform="translate(0,0)"/>
<path d="" fill="#75D16E" transform="translate(0,0)"/>
<path d="" fill="#46A6E5" transform="translate(0,0)"/>
<path d="" fill="#76CF70" transform="translate(0,0)"/>
<path d="" fill="#3EA7FE" transform="translate(0,0)"/>
<path d="" fill="#3E9CED" transform="translate(0,0)"/>
<path d="" fill="#44A7FB" transform="translate(0,0)"/>
<path d="" fill="#77D759" transform="translate(0,0)"/>
<path d="" fill="#3B9AEF" transform="translate(0,0)"/>
<path d="" fill="#3E97E9" transform="translate(0,0)"/>
<path d="" fill="#4BAAD9" transform="translate(0,0)"/>
<path d="" fill="#5DB6C0" transform="translate(0,0)"/>
<path d="" fill="#4EA9D8" transform="translate(0,0)"/>
<path d="" fill="#3EA5F7" transform="translate(0,0)"/>
<path d="" fill="#3FA6FB" transform="translate(0,0)"/>
<path d="" fill="#52AFCF" transform="translate(0,0)"/>
<path d="" fill="#3FA7FC" transform="translate(0,0)"/>
<path d="" fill="#5EB7B5" transform="translate(0,0)"/>
<path d="" fill="#58B3B6" transform="translate(0,0)"/>
<path d="" fill="#75D858" transform="translate(0,0)"/>
<path d="" fill="#439FF0" transform="translate(0,0)"/>
<path d="" fill="#40A5FC" transform="translate(0,0)"/>
<path d="" fill="#5CB2B0" transform="translate(0,0)"/>
<path d="" fill="#73D357" transform="translate(0,0)"/>
<path d="" fill="#41A6FB" transform="translate(0,0)"/>
<path d="" fill="#74CC65" transform="translate(0,0)"/>
<path d="" fill="#73D063" transform="translate(0,0)"/>
<path d="" fill="#3FA6FC" transform="translate(0,0)"/>
<path d="" fill="#77D061" transform="translate(0,0)"/>
<path d="" fill="#3F9DEC" transform="translate(0,0)"/>
<path d="" fill="#41A7FB" transform="translate(0,0)"/>
<path d="" fill="#78D958" transform="translate(0,0)"/>
<path d="" fill="#76D859" transform="translate(0,0)"/>
<path d="" fill="#3EA5FD" transform="translate(0,0)"/>
<path d="" fill="#76D358" transform="translate(0,0)"/>
<path d="" fill="#41A4F7" transform="translate(0,0)"/>
<path d="" fill="#78D758" transform="translate(0,0)"/>
<path d="" fill="#77D656" transform="translate(0,0)"/>
<path d="" fill="#3FA5FA" transform="translate(0,0)"/>
<path d="" fill="#3D9AEF" transform="translate(0,0)"/>
<path d="" fill="#3FA2FB" transform="translate(0,0)"/>
<path d="" fill="#41A4FC" transform="translate(0,0)"/>
<path d="" fill="#75CC5E" transform="translate(0,0)"/>
<path d="" fill="#3FA1F6" transform="translate(0,0)"/>
<path d="" fill="#41A5F9" transform="translate(0,0)"/>
<path d="" fill="#40A6FB" transform="translate(0,0)"/>
<path d="" fill="#7BD65A" transform="translate(0,0)"/>
<path d="" fill="#7AD658" transform="translate(0,0)"/>
<path d="" fill="#3EA3F8" transform="translate(0,0)"/>
<path d="" fill="#76D756" transform="translate(0,0)"/>
<path d="" fill="#76CB57" transform="translate(0,0)"/>
<path d="" fill="#3EA4F9" transform="translate(0,0)"/>
<path d="" fill="#3FA4F7" transform="translate(0,0)"/>
<path d="" fill="#76DB58" transform="translate(0,0)"/>
<path d="" fill="#3C9BED" transform="translate(0,0)"/>
<path d="" fill="#3FA3F6" transform="translate(0,0)"/>
<path d="" fill="#79D757" transform="translate(0,0)"/>
<path d="" fill="#41A5FB" transform="translate(0,0)"/>
<path d="" fill="#7BD65A" transform="translate(0,0)"/>
<path d="" fill="#40A1F4" transform="translate(0,0)"/>
<path d="" fill="#41A5FB" transform="translate(0,0)"/>
<path d="" fill="#3CA4F9" transform="translate(0,0)"/>
<path d="" fill="#77D459" transform="translate(0,0)"/>
<path d="" fill="#3C9CEE" transform="translate(0,0)"/>
<path d="" fill="#3E95E2" transform="translate(0,0)"/>
<path d="" fill="#3D93DD" transform="translate(0,0)"/>
<path d="" fill="#3A99E8" transform="translate(0,0)"/>
<path d="" fill="#41A3FB" transform="translate(0,0)"/>
<path d="" fill="#40A5FD" transform="translate(0,0)"/>
<path d="" fill="#77D457" transform="translate(0,0)"/>
<path d="" fill="#42A6FD" transform="translate(0,0)"/>
<path d="" fill="#41A5FB" transform="translate(0,0)"/>
<path d="" fill="#73CB55" transform="translate(0,0)"/>
<path d="" fill="#75D659" transform="translate(0,0)"/>
<path d="" fill="#3CA3F9" transform="translate(0,0)"/>
<path d="" fill="#3EA0F3" transform="translate(0,0)"/>
<path d="" fill="#3D9AEA" transform="translate(0,0)"/>
<path d="" fill="#3FA4FB" transform="translate(0,0)"/>
<path d="" fill="#3E99E9" transform="translate(0,0)"/>
<path d="" fill="#40A4FA" transform="translate(0,0)"/>
<path d="" fill="#3F9DF1" transform="translate(0,0)"/>
<path d="" fill="#3D97E9" transform="translate(0,0)"/>
<path d="" fill="#3E99E9" transform="translate(0,0)"/>
<path d="" fill="#78D458" transform="translate(0,0)"/>
<path d="" fill="#78D257" transform="translate(0,0)"/>
<path d="" fill="#79D55B" transform="translate(0,0)"/>
<path d="" fill="#3FA1F8" transform="translate(0,0)"/>
<path d="" fill="#79D75A" transform="translate(0,0)"/>
<path d="" fill="#7AD457" transform="translate(0,0)"/>
<path d="" fill="#7AD557" transform="translate(0,0)"/>
<path d="" fill="#3F9FF5" transform="translate(0,0)"/>
<path d="" fill="#3B9FEF" transform="translate(0,0)"/>
<path d="" fill="#3E9CEE" transform="translate(0,0)"/>
<path d="" fill="#3EA2F8" transform="translate(0,0)"/>
<path d="" fill="#3EA2F6" transform="translate(0,0)"/>
<path d="" fill="#76D256" transform="translate(0,0)"/>
<path d="" fill="#3F9DF0" transform="translate(0,0)"/>
<path d="" fill="#79D558" transform="translate(0,0)"/>
<path d="" fill="#77D359" transform="translate(0,0)"/>
<path d="" fill="#76D357" transform="translate(0,0)"/>
<path d="" fill="#79D458" transform="translate(0,0)"/>
<path d="" fill="#79D657" transform="translate(0,0)"/>
<path d="" fill="#45A4F2" transform="translate(0,0)"/>
<path d="" fill="#78D656" transform="translate(0,0)"/>
<path d="" fill="#3B9BEE" transform="translate(0,0)"/>
<path d="" fill="#77D558" transform="translate(0,0)"/>
<path d="" fill="#77D556" transform="translate(0,0)"/>
<path d="" fill="#388EDE" transform="translate(0,0)"/>
<path d="" fill="#78D557" transform="translate(0,0)"/>
<path d="" fill="#78D359" transform="translate(0,0)"/>
<path d="" fill="#79D357" transform="translate(0,0)"/>
<path d="" fill="#75D356" transform="translate(0,0)"/>
<path d="" fill="#73D258" transform="translate(0,0)"/>
<path d="" fill="#73D05A" transform="translate(0,0)"/>
<path d="" fill="#78D457" transform="translate(0,0)"/>
<path d="" fill="#3788D1" transform="translate(0,0)"/>
<path d="" fill="#71CB55" transform="translate(0,0)"/>
<path d="" fill="#78D357" transform="translate(0,0)"/>
<path d="" fill="#7AD559" transform="translate(0,0)"/>
<path d="" fill="#74CA55" transform="translate(0,0)"/>
<path d="" fill="#3A90E0" transform="translate(0,0)"/>
<path d="" fill="#3A88D2" transform="translate(0,0)"/>
<path d="" fill="#76D357" transform="translate(0,0)"/>
<path d="" fill="#77D356" transform="translate(0,0)"/>
<path d="" fill="#77D557" transform="translate(0,0)"/>
<path d="" fill="#78D355" transform="translate(0,0)"/>
<path d="" fill="#77D558" transform="translate(0,0)"/>
<path d="" fill="#3885CF" transform="translate(0,0)"/>
<path d="" fill="#78D359" transform="translate(0,0)"/>
<path d="" fill="#3689D2" transform="translate(0,0)"/>
<path d="" fill="#3580C5" transform="translate(0,0)"/>
<path d="" fill="#75D358" transform="translate(0,0)"/>
<path d="" fill="#77D557" transform="translate(0,0)"/>
<path d="" fill="#73D356" transform="translate(0,0)"/>
<path d="" fill="#79D458" transform="translate(0,0)"/>
<path d="" fill="#79D556" transform="translate(0,0)"/>
<path d="" fill="#75D457" transform="translate(0,0)"/>
<path d="" fill="#75D157" transform="translate(0,0)"/>
<path d="" fill="#72CD53" transform="translate(0,0)"/>
<path d="" fill="#6FCB53" transform="translate(0,0)"/>
<path d="" fill="#77D257" transform="translate(0,0)"/>
<path d="" fill="#77D357" transform="translate(0,0)"/>
<path d="" fill="#78D057" transform="translate(0,0)"/>
<path d="" fill="#6FC453" transform="translate(0,0)"/>
<path d="" fill="#77D456" transform="translate(0,0)"/>
<path d="" fill="#75D256" transform="translate(0,0)"/>
<path d="" fill="#79D356" transform="translate(0,0)"/>
<path d="" fill="#79D458" transform="translate(0,0)"/>
<path d="" fill="#77D558" transform="translate(0,0)"/>
<path d="" fill="#78D458" transform="translate(0,0)"/>
<path d="" fill="#77D459" transform="translate(0,0)"/>
<path d="" fill="#77D256" transform="translate(0,0)"/>
<path d="" fill="#71CC55" transform="translate(0,0)"/>
<path d="" fill="#73CD52" transform="translate(0,0)"/>
<path d="" fill="#74CD52" transform="translate(0,0)"/>
<path d="" fill="#73D056" transform="translate(0,0)"/>
<path d="" fill="#72D055" transform="translate(0,0)"/>
<path d="" fill="#75D056" transform="translate(0,0)"/>
<path d="" fill="#73D155" transform="translate(0,0)"/>
<path d="" fill="#76D355" transform="translate(0,0)"/>
<path d="" fill="#76D357" transform="translate(0,0)"/>
<path d="" fill="#75CF56" transform="translate(0,0)"/>
<path d="" fill="#76D257" transform="translate(0,0)"/>
<path d="" fill="#75CE55" transform="translate(0,0)"/>
<path d="" fill="#73CC54" transform="translate(0,0)"/>
<path d="" fill="#71C751" transform="translate(0,0)"/>
<path d="" fill="#71C952" transform="translate(0,0)"/>
<path d="" fill="#70CC54" transform="translate(0,0)"/>
<path d="" fill="#73D054" transform="translate(0,0)"/>
<path d="" fill="#73CF54" transform="translate(0,0)"/>
<path d="" fill="#70C34E" transform="translate(0,0)"/>
<path d="" fill="#75CD54" transform="translate(0,0)"/>
<path d="" fill="#6DC14D" transform="translate(0,0)"/>
<path d="" fill="#71C854" transform="translate(0,0)"/>
<path d="" fill="#6FC753" transform="translate(0,0)"/>
<path d="" fill="#6EC652" transform="translate(0,0)"/>
<path d="" fill="#70C152" transform="translate(0,0)"/>
<path d="" fill="#6DC052" transform="translate(0,0)"/>
<path d="" fill="#4F8535" transform="translate(0,0)"/>
</svg>
